<?xml version="1.0" encoding="UTF-8"?>
<svg xmlns="http://www.w3.org/2000/svg" id="Icons" viewBox="0 0 74 74" width="512" height="512"><path d="M63.04,63.8A4.044,4.044,0,0,1,59,59.755V45.928a1,1,0,0,1,2,0V59.755a2.04,2.04,0,1,0,4.079,0V35.689a1,1,0,0,1,2,0V59.755A4.044,4.044,0,0,1,63.04,63.8Z"/><path d="M68.54,46.739a3.464,3.464,0,0,1-3.461-3.46v-7.59a1,1,0,0,1,2,0v7.59a1.461,1.461,0,0,0,2.921,0V31.034a3.984,3.984,0,0,0-3.979-3.979H53.979A3.984,3.984,0,0,0,50,31.034V43.279a1.461,1.461,0,0,0,2.921,0v-7.59a1,1,0,0,1,2,0v7.59a3.461,3.461,0,0,1-6.921,0V31.034a5.986,5.986,0,0,1,5.979-5.979H66.021A5.986,5.986,0,0,1,72,31.034V43.279A3.464,3.464,0,0,1,68.54,46.739Z"/><path d="M56.96,63.8a4.044,4.044,0,0,1-4.039-4.04V35.689a1,1,0,0,1,2,0V59.755a2.04,2.04,0,1,0,4.079,0V45.928a1,1,0,0,1,2,0V59.755A4.044,4.044,0,0,1,56.96,63.8Z"/><path d="M60,22.8a6.3,6.3,0,1,1,6.3-6.3A6.306,6.306,0,0,1,60,22.8Zm0-10.6a4.3,4.3,0,1,0,4.3,4.3A4.3,4.3,0,0,0,60,12.205Z"/><path d="M10.96,63.8a4.044,4.044,0,0,1-4.039-4.04V35.689a1,1,0,1,1,2,0V59.755a2.04,2.04,0,1,0,4.079,0V45.928a1,1,0,0,1,2,0V59.755A4.044,4.044,0,0,1,10.96,63.8Z"/><path d="M22.54,46.739a3.464,3.464,0,0,1-3.461-3.46v-7.59a1,1,0,0,1,2,0v7.59a1.461,1.461,0,0,0,2.921,0V31.034a3.984,3.984,0,0,0-3.979-3.979H7.979A3.984,3.984,0,0,0,4,31.034V43.279a1.461,1.461,0,0,0,2.921,0v-7.59a1,1,0,1,1,2,0v7.59a3.461,3.461,0,0,1-6.921,0V31.034a5.986,5.986,0,0,1,5.979-5.979H20.021A5.986,5.986,0,0,1,26,31.034V43.279A3.464,3.464,0,0,1,22.54,46.739Z"/><path d="M17.04,63.8A4.044,4.044,0,0,1,13,59.755V45.928a1,1,0,0,1,2,0V59.755a2.04,2.04,0,1,0,4.079,0V35.689a1,1,0,0,1,2,0V59.755A4.044,4.044,0,0,1,17.04,63.8Z"/><path d="M14,22.8a6.3,6.3,0,1,1,6.3-6.3A6.306,6.306,0,0,1,14,22.8Zm0-10.6a4.3,4.3,0,1,0,4.3,4.3A4.3,4.3,0,0,0,14,12.205Z"/><path d="M48.5,15h-23a1,1,0,0,1,0-2h23a1,1,0,0,1,0,2Z"/><path d="M46.156,17.75A1,1,0,0,1,45.4,16.1L47.186,14,45.4,11.9a1,1,0,0,1,1.522-1.3l2.344,2.75a1,1,0,0,1,0,1.3L46.917,17.4A.994.994,0,0,1,46.156,17.75Z"/><path d="M27.844,17.75a.994.994,0,0,1-.761-.352l-2.344-2.75a1,1,0,0,1,0-1.3l2.344-2.75a1,1,0,1,1,1.522,1.3L26.814,14l1.791,2.1a1,1,0,0,1-.761,1.648Z"/></svg>
